<svg width="18" xmlns="http://www.w3.org/2000/svg" height="19.764" id="screenshot-f43418b5-d084-8039-8006-873b64bea805" viewBox="598.002 209.985 18 19.764" xmlns:xlink="http://www.w3.org/1999/xlink" fill="none" version="1.1"><g id="shape-f43418b5-d084-8039-8006-873b64bea805"><g class="fills" id="fills-f43418b5-d084-8039-8006-873b64bea805"><path d="M607.9630126953125,210.28599548339844C607.8412475585938,210.12281799316406,607.6583862304688,210.0161590576172,607.4563598632812,209.99049377441406C607.25439453125,209.96485900878906,607.0506591796875,210.0224151611328,606.8920288085938,210.1499786376953C604.9755249023438,211.6885528564453,603.71142578125,213.8946075439453,603.35302734375,216.3259735107422C602.6961669921875,215.8496856689453,602.1204223632812,215.2705841064453,601.6480102539062,214.61097717285156C601.51806640625,214.4293670654297,601.3140258789062,214.3151092529297,601.0912475585938,214.2992401123047C600.8685302734375,214.2834014892578,600.6503295898438,214.3675994873047,600.4959716796875,214.5289764404297C597.785888671875,217.36402893066406,597.2237548828125,221.6276397705078,599.1063842773438,225.06822204589844C600.9890747070312,228.5088348388672,604.8829956054688,230.33409118652344,608.7318725585938,229.5801239013672C612.5806884765625,228.82615661621094,615.4981689453125,225.6665496826172,615.9434814453125,221.76991271972656C616.3887939453125,217.87327575683594,614.2594604492188,214.1369171142578,610.6799926757812,212.5339813232422C609.607666015625,212.01255798339844,608.676025390625,211.24168395996094,607.9630126953125,210.28599548339844ZM610.75,222.24998474121094C610.7489624023438,223.7321014404297,609.8751220703125,225.0745391845703,608.520263671875,225.67539978027344C607.1654663085938,226.27626037597656,605.5838012695312,226.0227813720703,604.484619140625,225.0286407470703C603.3853759765625,224.0344696044922,602.9747924804688,222.48619079589844,603.43701171875,221.07798767089844C604.0650024414062,221.54298400878906,604.7869873046875,221.8879852294922,605.5700073242188,222.07798767089844C605.7822875976562,220.7089385986328,606.4625854492188,219.45579528808594,607.4949951171875,218.53199768066406C609.3585815429688,218.78016662597656,610.7504272460938,220.3699188232422,610.75,222.24998474121094Z" style="fill: rgb(234, 115, 12); fill-opacity: 1;"/></g></g></svg>