<svg width="560" height="292" viewBox="0 0 560 292" fill="none" xmlns="http://www.w3.org/2000/svg">
<path d="M299.663 36.695C299.307 36.9681 293.018 40.4709 293.018 48.2596C293.018 57.2685 301.02 60.4556 301.26 60.5345C301.223 60.7288 299.988 64.8993 297.04 69.1488C294.412 72.8884 291.666 76.6218 287.49 76.6218C283.314 76.6218 282.239 74.2239 277.417 74.2239C272.719 74.2239 271.048 76.7008 267.228 76.7008C263.408 76.7008 260.743 73.2405 257.678 68.991C254.128 64.0009 251.26 56.2486 251.26 48.891C251.26 37.0895 259.023 30.8307 266.663 30.8307C270.723 30.8307 274.107 33.4654 276.656 33.4654C279.082 33.4654 282.865 30.6728 287.484 30.6728C289.234 30.6728 295.523 30.8307 299.663 36.695ZM285.291 25.6767C287.201 23.4366 288.552 20.3284 288.552 17.2202C288.552 16.7892 288.516 16.3521 288.436 16C285.328 16.1153 281.631 18.0458 279.401 20.6016C277.651 22.5685 276.017 25.6767 276.017 28.8274C276.017 29.3009 276.097 29.7744 276.134 29.9261C276.33 29.9626 276.65 30.0051 276.969 30.0051C279.757 30.0051 283.264 28.1596 285.291 25.6767Z" fill="black"/>
<path d="M98.958 12.2809C90.3505 18.6726 87.9855 30.4178 87.9855 30.4178C87.9855 30.4178 99.5777 31.7984 108.187 25.4072C116.795 19.0139 119.159 7.27045 119.159 7.27045C119.159 7.27045 107.567 5.88978 98.958 12.2809Z" fill="black"/>
<path d="M78.403 4.58405C78.403 4.58405 69.2982 12.1225 67.7013 22.8904C66.1048 33.6567 72.6208 43.574 72.6208 43.574C72.6208 43.574 81.7256 36.0356 83.322 25.2692C84.9175 14.5008 78.403 4.58405 78.403 4.58405Z" fill="black"/>
<path d="M93.021 35.4143C82.5371 37.0944 75.2267 46.4682 75.2267 46.4682C75.2267 46.4682 84.9151 53.1174 95.3995 51.4356C105.883 49.7554 113.193 40.3833 113.193 40.3833C113.193 40.3833 103.505 33.7341 93.021 35.4143Z" fill="black"/>
<path d="M56.7532 23.5154C56.7532 23.5154 47.7271 32.3504 46.9581 43.9322C46.1896 55.5124 53.9691 65.4549 53.9691 65.4549C53.9691 65.4549 62.9947 56.6215 63.7652 45.0403C64.5337 33.46 56.7532 23.5154 56.7532 23.5154Z" fill="black"/>
<path d="M74.9475 54.9358C63.9495 57.6723 56.9883 68.2917 56.9883 68.2917C56.9883 68.2917 67.8583 74.4746 78.8563 71.738C89.8543 69.0015 96.8171 58.3826 96.8171 58.3826C96.8171 58.3826 85.9471 52.1997 74.9475 54.9358Z" fill="black"/>
<path d="M48.6444 69.921C47.5846 57.6527 37.8197 48.5524 37.8197 48.5524C37.8197 48.5524 29.7699 59.3417 30.8292 71.6116C31.8874 83.8794 41.6539 92.9802 41.6539 92.9802C41.6539 92.9802 49.7026 82.1888 48.6444 69.921Z" fill="black"/>
<path d="M61.9735 78.3944C50.8734 83.1298 45.2779 95.4406 45.2779 95.4406C45.2779 95.4406 57.6819 100.076 68.7815 95.3421C79.8833 90.6072 85.4772 78.2958 85.4772 78.2958C85.4772 78.2958 73.0747 73.6611 61.9735 78.3944Z" fill="black"/>
<path d="M44.6743 214.677C34.0448 208.994 21.2711 212.529 21.2711 212.529C21.2711 212.529 25.7315 225.279 36.3605 230.964C46.9901 236.647 59.7617 233.113 59.7617 233.113C59.7617 233.113 55.3018 220.361 44.6743 214.677Z" fill="black"/>
<path d="M58.8725 207.729C56.709 219.857 63.7516 231.307 63.7516 231.307C63.7516 231.307 74.3016 223.094 76.4652 210.967C78.6287 198.839 71.586 187.389 71.586 187.389C71.586 187.389 61.0366 195.6 58.8725 207.729Z" fill="black"/>
<path d="M64.3828 243.607C54.1935 240.454 43.6141 245.698 43.6141 245.698C43.6141 245.698 49.5561 256.055 59.7474 259.207C69.9383 262.36 80.5162 257.115 80.5162 257.115C80.5162 257.115 74.5737 246.76 64.3828 243.607Z" fill="black"/>
<path d="M75.6588 235.146C75.7202 246.081 83.7084 254.866 83.7084 254.866C83.7084 254.866 91.5944 245.923 91.5314 234.988C91.4704 224.052 83.4822 215.266 83.4822 215.266C83.4822 215.266 75.5958 224.211 75.6588 235.146Z" fill="black"/>
<path d="M85.4316 263.714C76.4087 262.58 68.2449 268.564 68.2449 268.564C68.2449 268.564 74.7112 276.385 83.7326 277.518C92.7555 278.652 100.919 272.669 100.919 272.669C100.919 272.669 94.4545 264.848 85.4316 263.714Z" fill="black"/>
<path d="M93.7256 254.924C95.3223 264.106 103.287 270.304 103.287 270.304C103.287 270.304 108.661 261.611 107.063 252.428C105.466 243.245 97.5025 237.05 97.5025 237.05C97.5025 237.05 92.1288 245.741 93.7256 254.924Z" fill="black"/>
<path d="M109.282 277.012C102.488 276.99 96.9448 282.169 96.9448 282.169C96.9448 282.169 102.418 287.382 109.212 287.403C116.008 287.424 121.551 282.247 121.551 282.247C121.551 282.247 116.078 277.034 109.282 277.012Z" fill="black"/>
<path d="M114.682 269.741C116.66 276.406 123.106 280.278 123.106 280.278C123.106 280.278 126.345 273.343 124.369 266.679C122.391 260.014 115.946 256.142 115.946 256.142C115.946 256.142 112.706 263.077 114.682 269.741Z" fill="black"/>
<path d="M19.8386 81.5449C19.8386 81.5449 13.7815 94.646 17.5615 107.198C21.342 119.749 33.526 126.997 33.526 126.997C33.526 126.997 39.5817 113.895 35.8027 101.345C32.0227 88.7932 19.8386 81.5449 19.8386 81.5449Z" fill="black"/>
<path d="M51.5728 107.12C41.0094 114.606 37.8471 128.729 37.8471 128.729C37.8471 128.729 51.8144 130.716 62.3778 123.23C72.9406 115.746 76.1014 101.622 76.1014 101.622C76.1014 101.622 62.1362 99.6348 51.5728 107.12Z" fill="black"/>
<path d="M9.53645 124.841C9.53645 124.841 6.743 139.043 13.3748 150.27C20.005 161.496 33.5481 165.495 33.5481 165.495C33.5481 165.495 36.34 151.292 29.7098 140.066C23.0785 128.838 9.53645 124.841 9.53645 124.841Z" fill="black"/>
<path d="M68.9156 130.322C68.9156 130.322 54.8842 131.866 46.3895 141.746C37.8947 151.626 38.156 166.102 38.156 166.102C38.156 166.102 52.1874 164.559 60.6826 154.677C69.1758 144.797 68.9156 130.322 68.9156 130.322Z" fill="black"/>
<path d="M7.7348 172.218C7.7348 172.218 9.52396 186.572 19.3207 195.011C29.1164 203.448 43.2105 202.776 43.2105 202.776C43.2105 202.776 41.4219 188.42 31.6246 179.983C21.8294 171.544 7.7348 172.218 7.7348 172.218Z" fill="black"/>
<path d="M65.7666 157.865C65.7666 157.865 52.94 163.943 47.9697 176.084C43.0005 188.226 47.769 201.832 47.769 201.832C47.769 201.832 60.5956 195.754 65.5658 183.613C70.5345 171.472 65.7666 157.865 65.7666 157.865Z" fill="black"/>
<path d="M460.606 12.2809C469.213 18.6726 471.578 30.4178 471.578 30.4178C471.578 30.4178 459.986 31.7984 451.377 25.4072C442.769 19.0139 440.404 7.27045 440.404 7.27045C440.404 7.27045 451.996 5.88978 460.606 12.2809Z" fill="black"/>
<path d="M481.161 4.58405C481.161 4.58405 490.265 12.1225 491.862 22.8904C493.459 33.6567 486.943 43.574 486.943 43.574C486.943 43.574 477.838 36.0356 476.241 25.2692C474.646 14.5008 481.161 4.58405 481.161 4.58405Z" fill="black"/>
<path d="M466.542 35.4143C477.026 37.0944 484.337 46.4682 484.337 46.4682C484.337 46.4682 474.648 53.1174 464.164 51.4356C453.68 49.7554 446.37 40.3833 446.37 40.3833C446.37 40.3833 456.059 33.7341 466.542 35.4143Z" fill="black"/>
<path d="M502.81 23.5154C502.81 23.5154 511.836 32.3504 512.605 43.9322C513.374 55.5124 505.594 65.4549 505.594 65.4549C505.594 65.4549 496.569 56.6215 495.798 45.0403C495.03 33.46 502.81 23.5154 502.81 23.5154Z" fill="black"/>
<path d="M484.616 54.9358C495.614 57.6723 502.576 68.2917 502.576 68.2917C502.576 68.2917 491.706 74.4746 480.708 71.738C469.71 69.0015 462.747 58.3826 462.747 58.3826C462.747 58.3826 473.617 52.1997 484.616 54.9358Z" fill="black"/>
<path d="M510.92 69.921C511.979 57.6527 521.744 48.5524 521.744 48.5524C521.744 48.5524 529.794 59.3417 528.735 71.6116C527.677 83.8794 517.91 92.9802 517.91 92.9802C517.91 92.9802 509.861 82.1888 510.92 69.921Z" fill="black"/>
<path d="M497.59 78.3944C508.691 83.1298 514.286 95.4406 514.286 95.4406C514.286 95.4406 501.882 100.076 490.782 95.3421C479.681 90.6072 474.087 78.2958 474.087 78.2958C474.087 78.2958 486.489 73.6611 497.59 78.3944Z" fill="black"/>
<path d="M514.889 214.677C525.519 208.994 538.292 212.529 538.292 212.529C538.292 212.529 533.832 225.279 523.203 230.964C512.573 236.647 499.802 233.113 499.802 233.113C499.802 233.113 504.262 220.361 514.889 214.677Z" fill="black"/>
<path d="M500.691 207.729C502.855 219.857 495.812 231.307 495.812 231.307C495.812 231.307 485.262 223.094 483.099 210.967C480.935 198.839 487.978 187.389 487.978 187.389C487.978 187.389 498.527 195.6 500.691 207.729Z" fill="black"/>
<path d="M495.181 243.607C505.37 240.454 515.95 245.698 515.95 245.698C515.95 245.698 510.008 256.055 499.817 259.207C489.626 262.36 479.048 257.115 479.048 257.115C479.048 257.115 484.99 246.76 495.181 243.607Z" fill="black"/>
<path d="M483.905 235.146C483.843 246.081 475.855 254.866 475.855 254.866C475.855 254.866 467.969 245.923 468.032 234.988C468.093 224.052 476.081 215.266 476.081 215.266C476.081 215.266 483.968 224.211 483.905 235.146Z" fill="black"/>
<path d="M474.132 263.714C483.155 262.58 491.319 268.564 491.319 268.564C491.319 268.564 484.853 276.385 475.831 277.518C466.808 278.652 458.645 272.669 458.645 272.669C458.645 272.669 465.109 264.848 474.132 263.714Z" fill="black"/>
<path d="M465.838 254.924C464.242 264.106 456.277 270.304 456.277 270.304C456.277 270.304 450.902 261.611 452.501 252.428C454.098 243.245 462.061 237.05 462.061 237.05C462.061 237.05 467.435 245.741 465.838 254.924Z" fill="black"/>
<path d="M450.281 277.012C457.075 276.99 462.619 282.169 462.619 282.169C462.619 282.169 457.146 287.382 450.352 287.403C443.556 287.424 438.013 282.247 438.013 282.247C438.013 282.247 443.485 277.034 450.281 277.012Z" fill="black"/>
<path d="M444.881 269.741C442.903 276.406 436.458 280.278 436.458 280.278C436.458 280.278 433.218 273.343 435.195 266.679C437.172 260.014 443.618 256.142 443.618 256.142C443.618 256.142 446.858 263.077 444.881 269.741Z" fill="black"/>
<path d="M539.725 81.5449C539.725 81.5449 545.783 94.646 542.002 107.198C538.222 119.749 526.038 126.997 526.038 126.997C526.038 126.997 519.982 113.895 523.761 101.345C527.541 88.7932 539.725 81.5449 539.725 81.5449Z" fill="black"/>
<path d="M507.991 107.12C518.555 114.606 521.717 128.729 521.717 128.729C521.717 128.729 507.75 130.716 497.186 123.23C486.623 115.746 483.463 101.622 483.463 101.622C483.463 101.622 497.428 99.6348 507.991 107.12Z" fill="black"/>
<path d="M550.027 124.841C550.027 124.841 552.82 139.043 546.189 150.27C539.558 161.496 526.015 165.495 526.015 165.495C526.015 165.495 523.223 151.292 529.854 140.066C536.485 128.838 550.027 124.841 550.027 124.841Z" fill="black"/>
<path d="M490.648 130.322C490.648 130.322 504.68 131.866 513.174 141.746C521.669 151.626 521.408 166.102 521.408 166.102C521.408 166.102 507.377 164.559 498.881 154.677C490.388 144.797 490.648 130.322 490.648 130.322Z" fill="black"/>
<path d="M551.829 172.218C551.829 172.218 550.04 186.572 540.243 195.011C530.448 203.448 516.353 202.776 516.353 202.776C516.353 202.776 518.142 188.42 527.939 179.983C537.735 171.544 551.829 172.218 551.829 172.218Z" fill="black"/>
<path d="M493.797 157.865C493.797 157.865 506.624 163.943 511.594 176.084C516.563 188.226 511.795 201.832 511.795 201.832C511.795 201.832 498.968 195.754 493.998 183.613C489.029 171.472 493.797 157.865 493.797 157.865Z" fill="black"/>
<path d="M114.415 196.774L124.535 163.654H133.873L143.993 196.774H137.553L128.537 167.564H129.733L120.855 196.774H114.415ZM120.487 189.874V184.032H137.967V189.874H120.487ZM160.306 197.464C157.837 197.464 155.775 196.889 154.119 195.739C152.463 194.589 151.213 193.025 150.37 191.047C149.542 189.069 149.128 186.838 149.128 184.354C149.128 181.87 149.542 179.639 150.37 177.661C151.198 175.683 152.417 174.119 154.027 172.969C155.637 171.819 157.622 171.244 159.984 171.244C162.36 171.244 164.43 171.811 166.194 172.946C167.957 174.081 169.322 175.637 170.288 177.615C171.269 179.578 171.76 181.824 171.76 184.354C171.76 186.838 171.277 189.069 170.311 191.047C169.36 193.025 168.026 194.589 166.309 195.739C164.591 196.889 162.59 197.464 160.306 197.464ZM148.07 207.814V171.934H153.59V188.954H154.372V207.814H148.07ZM159.294 191.898C160.643 191.898 161.747 191.561 162.606 190.886C163.464 190.211 164.101 189.307 164.515 188.172C164.929 187.022 165.136 185.749 165.136 184.354C165.136 182.974 164.921 181.717 164.492 180.582C164.062 179.432 163.395 178.52 162.491 177.845C161.601 177.155 160.459 176.81 159.064 176.81C157.76 176.81 156.702 177.124 155.89 177.753C155.092 178.382 154.51 179.263 154.142 180.398C153.774 181.533 153.59 182.851 153.59 184.354C153.59 185.857 153.774 187.175 154.142 188.31C154.51 189.445 155.108 190.326 155.936 190.955C156.779 191.584 157.898 191.898 159.294 191.898ZM189.011 197.464C186.542 197.464 184.48 196.889 182.824 195.739C181.168 194.589 179.918 193.025 179.075 191.047C178.247 189.069 177.833 186.838 177.833 184.354C177.833 181.87 178.247 179.639 179.075 177.661C179.903 175.683 181.122 174.119 182.732 172.969C184.342 171.819 186.327 171.244 188.689 171.244C191.065 171.244 193.135 171.811 194.899 172.946C196.662 174.081 198.027 175.637 198.993 177.615C199.974 179.578 200.465 181.824 200.465 184.354C200.465 186.838 199.982 189.069 199.016 191.047C198.065 193.025 196.731 194.589 195.014 195.739C193.296 196.889 191.295 197.464 189.011 197.464ZM176.775 207.814V171.934H182.295V188.954H183.077V207.814H176.775ZM187.999 191.898C189.348 191.898 190.452 191.561 191.311 190.886C192.169 190.211 192.806 189.307 193.22 188.172C193.634 187.022 193.841 185.749 193.841 184.354C193.841 182.974 193.626 181.717 193.197 180.582C192.767 179.432 192.1 178.52 191.196 177.845C190.306 177.155 189.164 176.81 187.769 176.81C186.465 176.81 185.407 177.124 184.595 177.753C183.797 178.382 183.215 179.263 182.847 180.398C182.479 181.533 182.295 182.851 182.295 184.354C182.295 185.857 182.479 187.175 182.847 188.31C183.215 189.445 183.813 190.326 184.641 190.955C185.484 191.584 186.603 191.898 187.999 191.898ZM225.913 197.464C223.413 197.464 221.221 196.904 219.335 195.785C217.449 194.666 215.977 193.125 214.919 191.162C213.876 189.184 213.355 186.915 213.355 184.354C213.355 181.763 213.891 179.486 214.965 177.523C216.038 175.545 217.518 174.004 219.404 172.9C221.29 171.796 223.459 171.244 225.913 171.244C228.412 171.244 230.605 171.804 232.491 172.923C234.392 174.042 235.872 175.591 236.93 177.569C237.988 179.532 238.517 181.793 238.517 184.354C238.517 186.93 237.98 189.207 236.907 191.185C235.849 193.148 234.369 194.689 232.468 195.808C230.582 196.912 228.397 197.464 225.913 197.464ZM225.913 191.622C227.921 191.622 229.416 190.947 230.398 189.598C231.394 188.233 231.893 186.485 231.893 184.354C231.893 182.146 231.387 180.383 230.375 179.064C229.378 177.745 227.891 177.086 225.913 177.086C224.548 177.086 223.429 177.393 222.555 178.006C221.681 178.619 221.029 179.47 220.6 180.559C220.186 181.648 219.979 182.913 219.979 184.354C219.979 186.577 220.477 188.348 221.474 189.667C222.486 190.97 223.965 191.622 225.913 191.622ZM245.644 196.774V172.026C245.644 171.397 245.66 170.684 245.69 169.887C245.721 169.09 245.844 168.285 246.058 167.472C246.288 166.659 246.702 165.923 247.3 165.264C248.067 164.405 248.895 163.823 249.784 163.516C250.689 163.194 251.563 163.025 252.406 163.01C253.25 162.979 253.97 162.964 254.568 162.964H257.65V168.024H254.798C253.817 168.024 253.089 168.277 252.613 168.783C252.138 169.274 251.9 169.864 251.9 170.554V196.774H245.644ZM241.734 176.764V171.934H257.65V176.764H241.734ZM285.432 196.774C283.714 197.096 282.028 197.234 280.372 197.188C278.731 197.157 277.259 196.874 275.956 196.337C274.668 195.785 273.686 194.903 273.012 193.692C272.398 192.557 272.076 191.407 272.046 190.242C272.015 189.061 272 187.727 272 186.24V165.034H278.256V185.872C278.256 186.838 278.263 187.712 278.279 188.494C278.309 189.261 278.47 189.874 278.762 190.334C279.314 191.208 280.195 191.683 281.407 191.76C282.618 191.837 283.96 191.775 285.432 191.576V196.774ZM267.768 176.764V171.934H285.432V176.764H267.768ZM307.895 196.774V185.044C307.895 184.477 307.864 183.756 307.803 182.882C307.742 181.993 307.55 181.103 307.228 180.214C306.906 179.325 306.377 178.581 305.641 177.983C304.92 177.385 303.893 177.086 302.559 177.086C302.022 177.086 301.447 177.17 300.834 177.339C300.221 177.508 299.646 177.837 299.109 178.328C298.572 178.803 298.128 179.509 297.775 180.444C297.438 181.379 297.269 182.621 297.269 184.17L293.681 182.468C293.681 180.505 294.08 178.665 294.877 176.948C295.674 175.231 296.87 173.843 298.465 172.785C300.075 171.727 302.099 171.198 304.537 171.198C306.484 171.198 308.071 171.528 309.298 172.187C310.525 172.846 311.475 173.682 312.15 174.694C312.84 175.706 313.331 176.764 313.622 177.868C313.913 178.957 314.09 179.953 314.151 180.858C314.212 181.763 314.243 182.422 314.243 182.836V196.774H307.895ZM290.921 196.774V163.654H296.487V180.674H297.269V196.774H290.921ZM331.757 197.464C329.212 197.464 326.966 196.92 325.018 195.831C323.086 194.727 321.568 193.217 320.464 191.3C319.376 189.368 318.831 187.16 318.831 184.676C318.831 181.962 319.368 179.601 320.441 177.592C321.515 175.583 322.994 174.027 324.88 172.923C326.766 171.804 328.936 171.244 331.389 171.244C333.996 171.244 336.212 171.857 338.036 173.084C339.861 174.311 341.21 176.036 342.084 178.259C342.958 180.482 343.265 183.097 343.004 186.102H336.817V183.802C336.817 181.272 336.411 179.455 335.598 178.351C334.801 177.232 333.49 176.672 331.665 176.672C329.534 176.672 327.962 177.324 326.95 178.627C325.954 179.915 325.455 181.824 325.455 184.354C325.455 186.669 325.954 188.463 326.95 189.736C327.962 190.993 329.442 191.622 331.389 191.622C332.616 191.622 333.666 191.354 334.54 190.817C335.414 190.28 336.081 189.506 336.541 188.494L342.797 190.288C341.862 192.557 340.382 194.321 338.358 195.578C336.35 196.835 334.149 197.464 331.757 197.464ZM323.523 186.102V181.456H339.991V186.102H323.523ZM357.407 196.774V163.654H368.125C368.385 163.654 368.922 163.662 369.735 163.677C370.547 163.692 371.329 163.746 372.081 163.838C374.749 164.16 377.01 165.088 378.866 166.621C380.721 168.154 382.132 170.102 383.098 172.463C384.064 174.824 384.547 177.408 384.547 180.214C384.547 183.02 384.064 185.604 383.098 187.965C382.132 190.326 380.721 192.274 378.866 193.807C377.01 195.34 374.749 196.268 372.081 196.59C371.329 196.682 370.547 196.736 369.735 196.751C368.922 196.766 368.385 196.774 368.125 196.774H357.407ZM363.755 190.886H368.125C368.539 190.886 369.098 190.878 369.804 190.863C370.509 190.832 371.145 190.763 371.713 190.656C373.154 190.365 374.327 189.69 375.232 188.632C376.152 187.574 376.826 186.301 377.256 184.814C377.7 183.327 377.923 181.793 377.923 180.214C377.923 178.558 377.693 176.986 377.233 175.499C376.788 174.012 376.106 172.754 375.186 171.727C374.266 170.7 373.108 170.048 371.713 169.772C371.145 169.649 370.509 169.58 369.804 169.565C369.098 169.55 368.539 169.542 368.125 169.542H363.755V190.886ZM396.965 197.464C395.186 197.464 393.676 197.127 392.434 196.452C391.207 195.762 390.272 194.85 389.628 193.715C388.999 192.565 388.685 191.3 388.685 189.92C388.685 188.77 388.861 187.72 389.214 186.769C389.566 185.818 390.134 184.983 390.916 184.262C391.713 183.526 392.779 182.913 394.113 182.422C395.033 182.085 396.129 181.786 397.402 181.525C398.674 181.264 400.116 181.019 401.726 180.789C403.336 180.544 405.107 180.275 407.039 179.984L404.785 181.226C404.785 179.754 404.432 178.673 403.727 177.983C403.021 177.293 401.841 176.948 400.185 176.948C399.265 176.948 398.306 177.17 397.31 177.615C396.313 178.06 395.615 178.849 395.217 179.984L389.559 178.19C390.187 176.135 391.368 174.464 393.101 173.176C394.833 171.888 397.195 171.244 400.185 171.244C402.377 171.244 404.325 171.581 406.027 172.256C407.729 172.931 409.017 174.096 409.891 175.752C410.381 176.672 410.673 177.592 410.765 178.512C410.857 179.432 410.903 180.459 410.903 181.594V196.774H405.429V191.668L406.211 192.726C404.999 194.397 403.688 195.609 402.278 196.36C400.882 197.096 399.111 197.464 396.965 197.464ZM398.299 192.542C399.449 192.542 400.415 192.343 401.197 191.944C401.994 191.53 402.623 191.062 403.083 190.541C403.558 190.02 403.88 189.583 404.049 189.23C404.371 188.555 404.555 187.773 404.601 186.884C404.662 185.979 404.693 185.228 404.693 184.63L406.533 185.09C404.677 185.397 403.175 185.657 402.025 185.872C400.875 186.071 399.947 186.255 399.242 186.424C398.536 186.593 397.915 186.777 397.379 186.976C396.765 187.221 396.267 187.49 395.884 187.781C395.516 188.057 395.24 188.364 395.056 188.701C394.887 189.038 394.803 189.414 394.803 189.828C394.803 190.395 394.941 190.886 395.217 191.3C395.508 191.699 395.914 192.005 396.436 192.22C396.957 192.435 397.578 192.542 398.299 192.542ZM418.665 207.814L423.449 194.658L423.541 198.522L412.731 171.934H419.217L426.485 190.748H425.013L432.235 171.934H438.491L424.461 207.814H418.665Z" fill="black"/>
<path d="M199.84 118.774H195.879L204.778 94.0467H209.088L217.987 118.774H214.026L207.036 98.5382H206.842L199.84 118.774ZM200.504 109.091H213.35V112.23H200.504V109.091ZM221.268 125.729V100.229H224.793V103.235H225.095C225.304 102.849 225.606 102.402 226.001 101.895C226.395 101.388 226.942 100.945 227.643 100.567C228.343 100.18 229.269 99.9871 230.42 99.9871C231.917 99.9871 233.253 100.365 234.428 101.122C235.603 101.879 236.525 102.969 237.193 104.394C237.869 105.819 238.207 107.533 238.207 109.537C238.207 111.542 237.873 113.26 237.205 114.693C236.537 116.118 235.619 117.216 234.452 117.989C233.285 118.754 231.953 119.136 230.456 119.136C229.329 119.136 228.407 118.947 227.691 118.569C226.983 118.19 226.427 117.748 226.025 117.241C225.622 116.734 225.312 116.283 225.095 115.888H224.878V125.729H221.268ZM224.805 109.501C224.805 110.805 224.994 111.948 225.373 112.93C225.751 113.912 226.298 114.681 227.015 115.236C227.731 115.784 228.609 116.057 229.647 116.057C230.726 116.057 231.627 115.772 232.351 115.2C233.076 114.621 233.623 113.836 233.994 112.846C234.372 111.856 234.561 110.741 234.561 109.501C234.561 108.278 234.376 107.179 234.006 106.205C233.643 105.231 233.096 104.462 232.364 103.899C231.639 103.336 230.734 103.054 229.647 103.054C228.601 103.054 227.715 103.323 226.991 103.863C226.274 104.402 225.731 105.155 225.361 106.121C224.99 107.086 224.805 108.213 224.805 109.501ZM242.252 125.729V100.229H245.778V103.235H246.079C246.289 102.849 246.591 102.402 246.985 101.895C247.379 101.388 247.927 100.945 248.627 100.567C249.327 100.18 250.253 99.9871 251.404 99.9871C252.901 99.9871 254.237 100.365 255.413 101.122C256.588 101.879 257.509 102.969 258.177 104.394C258.854 105.819 259.192 107.533 259.192 109.537C259.192 111.542 258.858 113.26 258.19 114.693C257.521 116.118 256.604 117.216 255.437 117.989C254.27 118.754 252.937 119.136 251.44 119.136C250.313 119.136 249.392 118.947 248.675 118.569C247.967 118.19 247.412 117.748 247.009 117.241C246.607 116.734 246.297 116.283 246.079 115.888H245.862V125.729H242.252ZM245.79 109.501C245.79 110.805 245.979 111.948 246.357 112.93C246.735 113.912 247.283 114.681 247.999 115.236C248.716 115.784 249.593 116.057 250.631 116.057C251.71 116.057 252.611 115.772 253.336 115.2C254.06 114.621 254.608 113.836 254.978 112.846C255.356 111.856 255.545 110.741 255.545 109.501C255.545 108.278 255.36 107.179 254.99 106.205C254.628 105.231 254.08 104.462 253.348 103.899C252.623 103.336 251.718 103.054 250.631 103.054C249.585 103.054 248.699 103.323 247.975 103.863C247.259 104.402 246.715 105.155 246.345 106.121C245.975 107.086 245.79 108.213 245.79 109.501ZM286.011 100.542C285.882 99.3995 285.351 98.514 284.417 97.8862C283.483 97.2503 282.308 96.9324 280.891 96.9324C279.877 96.9324 279 97.0934 278.259 97.4153C277.519 97.7292 276.943 98.1639 276.533 98.7193C276.13 99.2666 275.929 99.8905 275.929 100.591C275.929 101.178 276.066 101.685 276.34 102.112C276.621 102.539 276.988 102.897 277.438 103.187C277.897 103.468 278.388 103.706 278.911 103.899C279.435 104.084 279.938 104.237 280.421 104.358L282.835 104.986C283.624 105.179 284.433 105.44 285.262 105.77C286.091 106.1 286.86 106.535 287.568 107.074C288.277 107.614 288.848 108.282 289.283 109.079C289.725 109.876 289.947 110.829 289.947 111.94C289.947 113.341 289.585 114.584 288.86 115.671C288.144 116.758 287.101 117.615 285.733 118.243C284.373 118.871 282.727 119.184 280.795 119.184C278.944 119.184 277.342 118.891 275.989 118.303C274.637 117.716 273.579 116.882 272.814 115.804C272.049 114.717 271.627 113.429 271.546 111.94H275.289C275.362 112.834 275.651 113.578 276.158 114.174C276.674 114.761 277.33 115.2 278.127 115.49C278.931 115.772 279.813 115.912 280.771 115.912C281.825 115.912 282.763 115.747 283.584 115.417C284.413 115.079 285.065 114.613 285.54 114.017C286.015 113.413 286.252 112.709 286.252 111.904C286.252 111.171 286.043 110.572 285.624 110.105C285.214 109.638 284.654 109.252 283.946 108.946C283.246 108.64 282.453 108.37 281.568 108.137L278.646 107.34C276.666 106.801 275.096 106.008 273.937 104.961C272.786 103.915 272.21 102.531 272.21 100.808C272.21 99.3834 272.597 98.1398 273.369 97.0773C274.142 96.0148 275.189 95.1897 276.509 94.6021C277.829 94.0065 279.318 93.7086 280.976 93.7086C282.65 93.7086 284.127 94.0024 285.407 94.59C286.695 95.1776 287.709 95.9866 288.45 97.0169C289.19 98.0391 289.577 99.2143 289.609 100.542H286.011ZM302.772 100.229V103.126H292.642V100.229H302.772ZM295.359 95.7854H298.969V113.329C298.969 114.029 299.074 114.556 299.283 114.91C299.492 115.256 299.762 115.494 300.092 115.623C300.43 115.743 300.796 115.804 301.191 115.804C301.48 115.804 301.734 115.784 301.951 115.743C302.169 115.703 302.338 115.671 302.458 115.647L303.11 118.629C302.901 118.71 302.603 118.79 302.217 118.871C301.831 118.959 301.348 119.007 300.768 119.015C299.818 119.032 298.933 118.863 298.112 118.508C297.291 118.154 296.627 117.607 296.12 116.866C295.612 116.126 295.359 115.196 295.359 114.077V95.7854ZM314.378 119.148C312.64 119.148 311.122 118.75 309.826 117.953C308.531 117.156 307.524 116.041 306.808 114.609C306.092 113.176 305.733 111.501 305.733 109.586C305.733 107.662 306.092 105.98 306.808 104.539C307.524 103.098 308.531 101.979 309.826 101.182C311.122 100.385 312.64 99.9871 314.378 99.9871C316.117 99.9871 317.634 100.385 318.93 101.182C320.226 101.979 321.232 103.098 321.949 104.539C322.665 105.98 323.023 107.662 323.023 109.586C323.023 111.501 322.665 113.176 321.949 114.609C321.232 116.041 320.226 117.156 318.93 117.953C317.634 118.75 316.117 119.148 314.378 119.148ZM314.39 116.118C315.517 116.118 316.451 115.82 317.191 115.224C317.932 114.629 318.479 113.836 318.834 112.846C319.196 111.856 319.377 110.765 319.377 109.574C319.377 108.39 319.196 107.304 318.834 106.314C318.479 105.316 317.932 104.515 317.191 103.911C316.451 103.307 315.517 103.006 314.39 103.006C313.255 103.006 312.314 103.307 311.565 103.911C310.825 104.515 310.273 105.316 309.911 106.314C309.557 107.304 309.38 108.39 309.38 109.574C309.38 110.765 309.557 111.856 309.911 112.846C310.273 113.836 310.825 114.629 311.565 115.224C312.314 115.82 313.255 116.118 314.39 116.118ZM327.053 118.774V100.229H330.542V103.175H330.735C331.073 102.176 331.669 101.392 332.522 100.82C333.384 100.241 334.358 99.9508 335.444 99.9508C335.67 99.9508 335.935 99.9589 336.241 99.975C336.555 99.9911 336.8 100.011 336.978 100.035V103.488C336.833 103.448 336.575 103.404 336.205 103.356C335.835 103.299 335.464 103.271 335.094 103.271C334.241 103.271 333.48 103.452 332.812 103.814C332.152 104.169 331.629 104.664 331.242 105.3C330.856 105.927 330.663 106.644 330.663 107.449V118.774H327.053ZM347.43 119.148C345.603 119.148 344.03 118.758 342.71 117.977C341.398 117.188 340.383 116.082 339.667 114.657C338.959 113.224 338.604 111.546 338.604 109.622C338.604 107.722 338.959 106.048 339.667 104.599C340.383 103.15 341.381 102.019 342.661 101.207C343.949 100.394 345.454 99.9871 347.177 99.9871C348.223 99.9871 349.238 100.16 350.22 100.506C351.202 100.852 352.083 101.396 352.864 102.136C353.645 102.877 354.26 103.839 354.711 105.022C355.162 106.197 355.387 107.626 355.387 109.308V110.588H340.645V107.883H351.85C351.85 106.934 351.656 106.092 351.27 105.36C350.884 104.619 350.34 104.036 349.64 103.609C348.948 103.183 348.135 102.969 347.201 102.969C346.187 102.969 345.301 103.219 344.545 103.718C343.796 104.209 343.217 104.853 342.806 105.65C342.404 106.439 342.203 107.296 342.203 108.221V110.334C342.203 111.574 342.42 112.628 342.854 113.498C343.297 114.367 343.913 115.031 344.702 115.49C345.491 115.941 346.412 116.166 347.467 116.166C348.151 116.166 348.775 116.069 349.338 115.876C349.902 115.675 350.389 115.377 350.799 114.983C351.21 114.588 351.524 114.101 351.741 113.522L355.158 114.138C354.884 115.144 354.393 116.025 353.685 116.782C352.984 117.53 352.103 118.114 351.041 118.533C349.986 118.943 348.783 119.148 347.43 119.148Z" fill="black"/>
</svg>
